# xmcd
#
# Track frame offsets:
#	150
#	13568
#	26094
#	44171
#	61584
#	76059
#	89209
#	101380
#	119140
#	132899
#	144008
#	158216
#
# Disc length: 2247 seconds
# Revision: 0
# Processed by: cddbd v1.5.2PL0 Copyright (c) Steve Scherf et al.
# Submitted via: dBpowerAMP V12.0
#
DISCID=9a08c50c
DTITLE=The Boxcars - It's Just a Road
DYEAR=2013
DGENRE=Country
TTITLE0=You Took All the Ramblin Out of Me
TTITLE1=It's Just a Road
TTITLE2=When Sorrows Encompass Me Around
TTITLE3=Cornelia
TTITLE4=Skillet Head Derailed
TTITLE5=Southern Train
TTITLE6=Coal Miner's Blues
TTITLE7=The Devil Held the Gun
TTITLE8=Trouble in mind
TTITLE9=Never Again (Will I Knock On Your Door)
TTITLE10=Caryville
TTITLE11=I'm Leaving You This Lonesome Song
EXTD=
EXTT0=
EXTT1=
EXTT2=
EXTT3=
EXTT4=
EXTT5=
EXTT6=
EXTT7=
EXTT8=
EXTT9=
EXTT10=
EXTT11=
PLAYORDER=
